<?xml version="1.0" standalone="no"?>
<!DOCTYPE svg PUBLIC "-//W3C//DTD SVG 20010904//EN"
 "http://www.w3.org/TR/2001/REC-SVG-20010904/DTD/svg10.dtd">
<svg version="1.0" xmlns="http://www.w3.org/2000/svg"
 width="160.000000pt" height="160.000000pt" viewBox="0 0 160.000000 160.000000"
 preserveAspectRatio="xMidYMid meet">
<metadata>
Created by potrace 1.11, written by Peter Selinger 2001-2013
</metadata>
<g transform="translate(0.000000,160.000000) scale(0.100000,-0.100000)"
fill="#000000" stroke="none">
<path d="M897 1488 c-8 -13 -21 -36 -28 -53 -20 -42 -71 -65 -147 -65 -62 0
-65 1 -108 45 -24 25 -50 45 -59 45 -38 0 -195 -97 -195 -120 0 -10 7 -37 15
-60 20 -55 5 -106 -46 -163 -36 -41 -38 -42 -115 -47 l-79 -5 -23 -68 c-12
-37 -23 -88 -25 -115 l-2 -47 58 -28 c31 -15 57 -34 57 -42 0 -8 -4 -15 -8
-15 -5 0 -17 -8 -28 -17 -10 -10 -44 -38 -74 -63 -30 -25 -63 -52 -72 -60 -15
-12 -18 -31 -18 -109 l0 -95 58 60 c108 110 171 168 178 162 10 -11 -18 -52
-64 -94 l-46 -41 13 -41 c16 -46 21 -36 -81 -158 l-58 -68 0 -113 0 -113 279
0 279 0 6 26 c5 19 11 24 24 19 94 -36 125 -39 529 -43 l402 -3 -14 48 c-25
78 -33 123 -40 214 -9 114 1 189 25 189 10 0 22 6 28 13 14 16 38 89 53 155
10 50 9 55 -11 77 l-21 23 30 61 c30 59 31 63 31 205 l0 145 -45 -17 c-43 -16
-45 -15 -60 3 -21 29 -18 40 13 54 15 8 35 17 44 22 10 5 25 9 33 9 10 0 15
10 15 35 0 41 -5 42 -87 19 -53 -15 -104 -25 -204 -40 -23 -4 -47 0 -64 9
l-28 14 69 22 c38 12 87 26 109 32 22 6 54 15 71 20 17 5 40 9 51 9 11 0 34 5
52 11 25 9 31 16 31 40 0 24 -4 29 -24 29 -12 0 -36 -4 -52 -9 -16 -5 -54 -14
-84 -20 -71 -15 -121 -29 -193 -53 -31 -11 -67 -18 -80 -16 -20 3 -22 10 -27
77 l-5 74 -65 22 c-36 12 -86 25 -112 29 -42 6 -48 5 -61 -16z m-172 -386
c-61 -32 -128 -70 -150 -84 -70 -43 -68 -42 -57 -21 15 28 94 98 132 118 57
29 104 44 145 44 38 1 35 -2 -70 -57z m312 10 c29 -18 24 -25 -45 -58 -31 -16
-59 -31 -62 -34 -3 -4 -20 -13 -37 -21 -18 -8 -33 -16 -33 -20 0 -3 -16 -11
-35 -19 -19 -8 -35 -17 -35 -22 0 -4 -7 -8 -15 -8 -8 0 -15 -4 -15 -10 0 -5
-5 -10 -11 -10 -12 0 -103 -60 -107 -72 -2 -4 -10 -8 -18 -8 -8 0 -14 -4 -14
-8 0 -4 -13 -15 -28 -24 -15 -9 -43 -31 -62 -48 -60 -53 -68 -55 -76 -16 -11
63 5 86 117 163 117 81 172 115 309 189 99 54 120 57 167 26z m158 -162 c22
-43 19 -52 -28 -91 -45 -38 -130 -139 -192 -228 -40 -58 -125 -226 -125 -248
0 -8 -12 -13 -31 -13 -38 0 -118 20 -125 31 -8 13 61 134 137 240 82 116 279
319 309 319 6 0 10 5 10 10 0 22 30 8 45 -20z"/>
</g>
</svg>
